<svg width="815" height="555" viewBox="0 0 815 555" fill="none" xmlns="http://www.w3.org/2000/svg">
<g clip-path="url(#clip0_1_2)">
<g filter="url(#filter0_i_1_2)">
<path d="M806.599 2H8.40133C5.97054 2 4 3.97054 4 6.40133V560.599C4 563.029 5.97054 565 8.40133 565H806.599C809.029 565 811 563.029 811 560.599V6.40133C811 3.97054 809.029 2 806.599 2Z" fill="white"/>
<path d="M27.8023 45.8111C27.8023 46.7053 27.5856 47.4826 27.1523 48.1429C26.719 48.8032 26.0862 49.3122 25.2539 49.6698C24.4285 50.0275 23.4243 50.2063 22.2412 50.2063C21.7185 50.2063 21.2061 50.172 20.7039 50.1032C20.2087 50.0344 19.7307 49.9347 19.2698 49.804C18.8159 49.6664 18.3825 49.4979 17.9698 49.2984V46.327C18.6852 46.6434 19.428 46.9289 20.1984 47.1834C20.9688 47.4379 21.7322 47.5651 22.4888 47.5651C23.0116 47.5651 23.4312 47.4963 23.7476 47.3588C24.0708 47.2212 24.3047 47.032 24.4492 46.7913C24.5936 46.5506 24.6658 46.2754 24.6658 45.9659C24.6658 45.5876 24.5386 45.2643 24.2841 44.9961C24.0296 44.7278 23.6788 44.4768 23.2317 44.2429C22.7915 44.009 22.2928 43.758 21.7357 43.4897C21.3849 43.3247 21.0031 43.1252 20.5904 42.8913C20.1778 42.6506 19.7857 42.3583 19.4143 42.0143C19.0428 41.6704 18.7368 41.2543 18.496 40.7659C18.2622 40.2707 18.1452 39.6792 18.1452 38.9914C18.1452 38.0903 18.3516 37.3199 18.7643 36.6803C19.177 36.0406 19.7651 35.5522 20.5285 35.2152C21.2989 34.8713 22.2068 34.6993 23.2523 34.6993C24.0365 34.6993 24.7827 34.7922 25.4912 34.9779C26.2065 35.1567 26.9528 35.4181 27.7301 35.762L26.6983 38.2485C26.0036 37.9665 25.3812 37.7498 24.8309 37.5985C24.2806 37.4403 23.7201 37.3612 23.1492 37.3612C22.7502 37.3612 22.4097 37.4265 22.1277 37.5572C21.8457 37.681 21.6325 37.8599 21.4881 38.0937C21.3436 38.3207 21.2714 38.5855 21.2714 38.8882C21.2714 39.2458 21.3746 39.5485 21.5809 39.7961C21.7941 40.0368 22.1105 40.2707 22.5301 40.4977C22.9566 40.7247 23.4862 40.9895 24.119 41.2921C24.8894 41.6567 25.5462 42.0384 26.0896 42.4374C26.6399 42.8294 27.0629 43.2937 27.3587 43.8302C27.6544 44.3598 27.8023 45.0201 27.8023 45.8111ZM35.0141 38.2279C36.5618 38.2279 37.7483 38.5649 38.5736 39.239C39.399 39.913 39.8117 40.9379 39.8117 42.3136V50H37.6141L37.0054 48.4318H36.9229C36.5927 48.8445 36.2557 49.1815 35.9118 49.4429C35.5678 49.7042 35.1723 49.8968 34.7253 50.0206C34.2782 50.1444 33.7348 50.2063 33.0951 50.2063C32.4142 50.2063 31.802 50.0757 31.2586 49.8143C30.7221 49.5529 30.2991 49.154 29.9896 48.6175C29.6801 48.0741 29.5253 47.3863 29.5253 46.554C29.5253 45.3297 29.9552 44.4286 30.815 43.8508C31.6748 43.2662 32.9644 42.9429 34.684 42.881L36.6856 42.8191V42.3136C36.6856 41.7083 36.5274 41.2646 36.211 40.9826C35.8946 40.7006 35.4544 40.5596 34.8903 40.5596C34.3332 40.5596 33.7864 40.6387 33.2499 40.7969C32.7134 40.9551 32.1769 41.1546 31.6404 41.3953L30.5983 39.2699C31.2105 38.9466 31.8949 38.6921 32.6515 38.5064C33.415 38.3207 34.2025 38.2279 35.0141 38.2279ZM36.6856 44.6556L35.4681 44.6969C34.4501 44.7244 33.7417 44.9067 33.3427 45.2437C32.9507 45.5807 32.7546 46.0244 32.7546 46.5746C32.7546 47.0561 32.8956 47.4 33.1777 47.6064C33.4597 47.8058 33.8277 47.9056 34.2816 47.9056C34.9557 47.9056 35.5231 47.7061 35.984 47.3072C36.4517 46.9082 36.6856 46.3408 36.6856 45.6048V44.6556ZM46.2085 50H43.0617V33.9462H46.2085V50ZM54.2767 38.2485C55.3428 38.2485 56.2611 38.4548 57.0314 38.8675C57.8018 39.2734 58.3968 39.8649 58.8164 40.6421C59.2359 41.4194 59.4457 42.3686 59.4457 43.4897V45.0167H52.0069C52.0413 45.904 52.3061 46.6021 52.8013 47.1111C53.3034 47.6132 53.9981 47.8643 54.8854 47.8643C55.6214 47.8643 56.2955 47.7886 56.9076 47.6373C57.5198 47.486 58.1492 47.259 58.7957 46.9564V49.3913C58.2248 49.6733 57.6264 49.8796 57.0005 50.0103C56.3814 50.141 55.6283 50.2063 54.741 50.2063C53.5854 50.2063 52.5606 49.9931 51.6664 49.5667C50.7791 49.1402 50.081 48.4902 49.572 47.6167C49.0699 46.7431 48.8188 45.6426 48.8188 44.3151C48.8188 42.967 49.0458 41.8458 49.4998 40.9517C49.9606 40.0506 50.6003 39.3765 51.4188 38.9294C52.2373 38.4755 53.1899 38.2485 54.2767 38.2485ZM54.2973 40.4874C53.6852 40.4874 53.1762 40.6834 52.7704 41.0755C52.3714 41.4675 52.141 42.0831 52.0791 42.9223H56.4949C56.4881 42.4546 56.4021 42.0384 56.237 41.6739C56.0788 41.3093 55.8381 41.0204 55.5148 40.8072C55.1984 40.594 54.7926 40.4874 54.2973 40.4874ZM70.052 46.5746C70.052 47.3588 69.8663 48.0225 69.4948 48.5659C69.1303 49.1024 68.5835 49.5116 67.8544 49.7937C67.1253 50.0688 66.2174 50.2063 65.1306 50.2063C64.3258 50.2063 63.6346 50.1548 63.0568 50.0516C62.4859 49.9484 61.9081 49.7765 61.3235 49.5357V46.9357C61.9494 47.2177 62.62 47.4516 63.3354 47.6373C64.0576 47.8162 64.6904 47.9056 65.2338 47.9056C65.8459 47.9056 66.2827 47.8162 66.5441 47.6373C66.8123 47.4516 66.9464 47.2109 66.9464 46.9151C66.9464 46.7225 66.8914 46.5506 66.7814 46.3992C66.6782 46.241 66.4512 46.0656 66.1004 45.873C65.7496 45.6736 65.1994 45.4156 64.4496 45.0992C63.7274 44.7966 63.1325 44.4905 62.6647 44.181C62.2039 43.8715 61.86 43.5069 61.633 43.0874C61.4129 42.6609 61.3028 42.121 61.3028 41.4675C61.3028 40.4014 61.7155 39.6001 62.5409 39.0636C63.3732 38.5202 64.484 38.2485 65.8734 38.2485C66.5888 38.2485 67.2697 38.3207 67.9163 38.4652C68.5697 38.6096 69.2403 38.84 69.9282 39.1564L68.979 41.4263C68.4081 41.1786 67.8681 40.9757 67.3591 40.8175C66.857 40.6593 66.3446 40.5802 65.8219 40.5802C65.361 40.5802 65.0137 40.6421 64.7798 40.7659C64.5459 40.8898 64.429 41.0789 64.429 41.3334C64.429 41.5191 64.4875 41.6842 64.6044 41.8286C64.7282 41.9731 64.9621 42.1347 65.306 42.3136C65.6568 42.4855 66.1692 42.709 66.8433 42.9842C67.4967 43.2524 68.0642 43.5344 68.5456 43.8302C69.0271 44.1191 69.3985 44.4802 69.6599 44.9135C69.9213 45.34 70.052 45.8937 70.052 46.5746ZM91.9351 42.4374C91.9351 43.5998 91.7907 44.659 91.5018 45.6151C91.2129 46.5643 90.7727 47.3828 90.1812 48.0706C89.5965 48.7585 88.8537 49.2881 87.9526 49.6595C87.0516 50.0241 85.9855 50.2063 84.7543 50.2063C83.523 50.2063 82.4569 50.0241 81.5559 49.6595C80.6548 49.2881 79.9085 48.7585 79.317 48.0706C78.7323 47.3828 78.2956 46.5609 78.0067 45.6048C77.7178 44.6487 77.5734 43.586 77.5734 42.4167C77.5734 40.8554 77.8278 39.4969 78.3368 38.3414C78.8527 37.1789 79.6437 36.2779 80.7098 35.6382C81.776 34.9985 83.131 34.6787 84.7749 34.6787C86.4119 34.6787 87.7566 34.9985 88.809 35.6382C89.8682 36.2779 90.6524 37.1789 91.1613 38.3414C91.6772 39.5038 91.9351 40.8691 91.9351 42.4374ZM80.9265 42.4374C80.9265 43.4897 81.0572 44.3977 81.3186 45.1611C81.5868 45.9178 82.0029 46.5024 82.567 46.9151C83.131 47.3209 83.8601 47.5238 84.7543 47.5238C85.6622 47.5238 86.3982 47.3209 86.9622 46.9151C87.5262 46.5024 87.9354 45.9178 88.1899 45.1611C88.4513 44.3977 88.582 43.4897 88.582 42.4374C88.582 40.8554 88.2862 39.6104 87.6947 38.7025C87.1032 37.7945 86.1299 37.3406 84.7749 37.3406C83.8738 37.3406 83.1379 37.5469 82.567 37.9596C82.0029 38.3654 81.5868 38.9501 81.3186 39.7136C81.0572 40.4702 80.9265 41.3781 80.9265 42.4374ZM97.5581 50L93.1629 38.4652H96.4542L98.6827 45.0373C98.8065 45.4225 98.9028 45.8283 98.9716 46.2548C99.0473 46.6812 99.0989 47.063 99.1264 47.4H99.2089C99.2295 47.0355 99.2777 46.6469 99.3533 46.2342C99.4359 45.8215 99.5425 45.4225 99.6732 45.0373L101.891 38.4652H105.183L100.787 50H97.5581ZM111.6 38.2485C112.666 38.2485 113.584 38.4548 114.355 38.8675C115.125 39.2734 115.72 39.8649 116.14 40.6421C116.559 41.4194 116.769 42.3686 116.769 43.4897V45.0167H109.33C109.365 45.904 109.629 46.6021 110.125 47.1111C110.627 47.6132 111.322 47.8643 112.209 47.8643C112.945 47.8643 113.619 47.7886 114.231 47.6373C114.843 47.486 115.473 47.259 116.119 46.9564V49.3913C115.548 49.6733 114.95 49.8796 114.324 50.0103C113.705 50.141 112.952 50.2063 112.064 50.2063C110.909 50.2063 109.884 49.9931 108.99 49.5667C108.102 49.1402 107.404 48.4902 106.895 47.6167C106.393 46.7431 106.142 45.6426 106.142 44.3151C106.142 42.967 106.369 41.8458 106.823 40.9517C107.284 40.0506 107.924 39.3765 108.742 38.9294C109.561 38.4755 110.513 38.2485 111.6 38.2485ZM111.621 40.4874C111.009 40.4874 110.5 40.6834 110.094 41.0755C109.695 41.4675 109.464 42.0831 109.402 42.9223H113.818C113.811 42.4546 113.725 42.0384 113.56 41.6739C113.402 41.3093 113.161 41.0204 112.838 40.8072C112.522 40.594 112.116 40.4874 111.621 40.4874ZM125.766 38.2485C125.924 38.2485 126.106 38.2588 126.313 38.2795C126.526 38.2932 126.698 38.3138 126.829 38.3414L126.591 41.2921C126.488 41.2577 126.34 41.2337 126.148 41.2199C125.962 41.1993 125.8 41.189 125.663 41.189C125.257 41.189 124.861 41.2405 124.476 41.3437C124.098 41.4469 123.757 41.6154 123.455 41.8493C123.152 42.0763 122.911 42.3789 122.733 42.7572C122.561 43.1286 122.475 43.586 122.475 44.1294V50H119.328V38.4652H121.711L122.175 40.4048H122.33C122.557 40.0128 122.839 39.6551 123.176 39.3318C123.52 39.0017 123.909 38.7403 124.342 38.5477C124.782 38.3482 125.257 38.2485 125.766 38.2485ZM131.667 50L127.272 38.4652H130.563L132.792 45.0373C132.916 45.4225 133.012 45.8283 133.081 46.2548C133.157 46.6812 133.208 47.063 133.236 47.4H133.318C133.339 47.0355 133.387 46.6469 133.463 46.2342C133.545 45.8215 133.652 45.4225 133.782 45.0373L136.001 38.4652H139.292L134.897 50H131.667ZM144.1 38.4652V50H140.953V38.4652H144.1ZM142.532 33.9462C142.999 33.9462 143.402 34.0562 143.739 34.2763C144.076 34.4895 144.244 34.8919 144.244 35.4834C144.244 36.0681 144.076 36.4739 143.739 36.7009C143.402 36.921 142.999 37.0311 142.532 37.0311C142.057 37.0311 141.651 36.921 141.314 36.7009C140.984 36.4739 140.819 36.0681 140.819 35.4834C140.819 34.8919 140.984 34.4895 141.314 34.2763C141.651 34.0562 142.057 33.9462 142.532 33.9462ZM152.168 38.2485C153.234 38.2485 154.152 38.4548 154.923 38.8675C155.693 39.2734 156.288 39.8649 156.708 40.6421C157.127 41.4194 157.337 42.3686 157.337 43.4897V45.0167H149.898C149.933 45.904 150.197 46.6021 150.693 47.1111C151.195 47.6132 151.889 47.8643 152.777 47.8643C153.513 47.8643 154.187 47.7886 154.799 47.6373C155.411 47.486 156.04 47.259 156.687 46.9564V49.3913C156.116 49.6733 155.518 49.8796 154.892 50.0103C154.273 50.141 153.52 50.2063 152.632 50.2063C151.477 50.2063 150.452 49.9931 149.558 49.5667C148.67 49.1402 147.972 48.4902 147.463 47.6167C146.961 46.7431 146.71 45.6426 146.71 44.3151C146.71 42.967 146.937 41.8458 147.391 40.9517C147.852 40.0506 148.492 39.3765 149.31 38.9294C150.129 38.4755 151.081 38.2485 152.168 38.2485ZM152.189 40.4874C151.576 40.4874 151.067 40.6834 150.662 41.0755C150.263 41.4675 150.032 42.0831 149.97 42.9223H154.386C154.379 42.4546 154.293 42.0384 154.128 41.6739C153.97 41.3093 153.729 41.0204 153.406 40.8072C153.09 40.594 152.684 40.4874 152.189 40.4874ZM169.377 50L168.49 45.9659C168.442 45.7252 168.363 45.3709 168.253 44.9032C168.143 44.4286 168.022 43.9231 167.892 43.3866C167.768 42.8432 167.651 42.3411 167.541 41.8802C167.438 41.4194 167.362 41.0823 167.314 40.8691H167.221C167.173 41.0823 167.097 41.4194 166.994 41.8802C166.891 42.3411 166.774 42.8432 166.643 43.3866C166.52 43.9299 166.403 44.4424 166.293 44.9238C166.182 45.3984 166.1 45.7596 166.045 46.0072L165.116 50H161.732L158.451 38.4652H161.588L162.919 43.5723C163.008 43.9299 163.094 44.3564 163.177 44.8516C163.259 45.34 163.331 45.8146 163.393 46.2754C163.462 46.7294 163.514 47.0905 163.548 47.3588H163.631C163.644 47.1593 163.672 46.8945 163.713 46.5643C163.761 46.2342 163.813 45.8937 163.868 45.5429C163.93 45.1852 163.985 44.8654 164.033 44.5834C164.088 44.2945 164.129 44.0985 164.157 43.9953L165.581 38.4652H169.047L170.399 43.9953C170.447 44.1948 170.509 44.5112 170.585 44.9445C170.667 45.3778 170.739 45.8249 170.801 46.2857C170.863 46.7397 170.898 47.0974 170.904 47.3588H170.987C171.014 47.1249 171.063 46.7775 171.131 46.3167C171.2 45.8559 171.279 45.3744 171.369 44.8723C171.465 44.3633 171.561 43.9299 171.658 43.5723L173.04 38.4652H176.125L172.803 50H169.377Z" fill="#343434"/>
<path d="M1 80H811" stroke="#E3E3E3"/>
<g filter="url(#filter1_i_1_2)">
<path d="M758.5 39.75L763 44.25L767.5 39.75" stroke="#5A5A5B" stroke-width="2" stroke-linecap="round" stroke-linejoin="round"/>
<path d="M636.727 48L635.32 44.375H630.742L629.344 48H628L632.469 36.5312H633.664L638.102 48H636.727ZM634.922 43.1953L633.586 39.5938C633.555 39.5 633.503 39.3464 633.43 39.1328C633.362 38.9193 633.292 38.6979 633.219 38.4688C633.146 38.2396 633.086 38.0547 633.039 37.9141C632.987 38.1276 632.93 38.3411 632.867 38.5547C632.81 38.763 632.753 38.9583 632.695 39.1406C632.638 39.3177 632.589 39.4688 632.547 39.5938L631.188 43.1953H634.922ZM640.797 48H639.492V35.8438H640.797V48ZM644.844 48H643.539V35.8438H644.844V48ZM656.82 37.5859C656.19 37.5859 655.622 37.6953 655.117 37.9141C654.617 38.1276 654.19 38.4401 653.836 38.8516C653.487 39.2578 653.219 39.75 653.031 40.3281C652.844 40.9062 652.75 41.5573 652.75 42.2812C652.75 43.2396 652.898 44.0729 653.195 44.7812C653.497 45.4844 653.945 46.0286 654.539 46.4141C655.138 46.7995 655.885 46.9922 656.781 46.9922C657.292 46.9922 657.771 46.9505 658.219 46.8672C658.672 46.7786 659.112 46.6693 659.539 46.5391V47.6953C659.122 47.8516 658.685 47.9661 658.227 48.0391C657.768 48.1172 657.224 48.1562 656.594 48.1562C655.432 48.1562 654.461 47.9167 653.68 47.4375C652.904 46.9531 652.32 46.2708 651.93 45.3906C651.544 44.5104 651.352 43.4714 651.352 42.2734C651.352 41.4089 651.471 40.6198 651.711 39.9062C651.956 39.1875 652.31 38.5677 652.773 38.0469C653.242 37.526 653.815 37.125 654.492 36.8438C655.174 36.5573 655.956 36.4141 656.836 36.4141C657.414 36.4141 657.971 36.4714 658.508 36.5859C659.044 36.7005 659.529 36.8646 659.961 37.0781L659.43 38.2031C659.065 38.0365 658.664 37.8932 658.227 37.7734C657.794 37.6484 657.326 37.5859 656.82 37.5859ZM665.023 39.2969C666.044 39.2969 666.802 39.526 667.297 39.9844C667.792 40.4427 668.039 41.1745 668.039 42.1797V48H667.094L666.844 46.7344H666.781C666.542 47.0469 666.292 47.3099 666.031 47.5234C665.771 47.7318 665.469 47.8906 665.125 48C664.786 48.1042 664.37 48.1562 663.875 48.1562C663.354 48.1562 662.891 48.0651 662.484 47.8828C662.083 47.7005 661.766 47.4245 661.531 47.0547C661.302 46.6849 661.188 46.2161 661.188 45.6484C661.188 44.7943 661.526 44.138 662.203 43.6797C662.88 43.2214 663.911 42.9714 665.297 42.9297L666.773 42.8672V42.3438C666.773 41.6042 666.615 41.0859 666.297 40.7891C665.979 40.4922 665.531 40.3438 664.953 40.3438C664.505 40.3438 664.078 40.4089 663.672 40.5391C663.266 40.6693 662.88 40.8229 662.516 41L662.117 40.0156C662.503 39.8177 662.945 39.6484 663.445 39.5078C663.945 39.3672 664.471 39.2969 665.023 39.2969ZM666.758 43.7812L665.453 43.8359C664.385 43.8776 663.633 44.0521 663.195 44.3594C662.758 44.6667 662.539 45.1016 662.539 45.6641C662.539 46.1536 662.688 46.5156 662.984 46.75C663.281 46.9844 663.674 47.1016 664.164 47.1016C664.924 47.1016 665.547 46.8906 666.031 46.4688C666.516 46.0469 666.758 45.4141 666.758 44.5703V43.7812ZM673.477 47.0938C673.69 47.0938 673.909 47.0755 674.133 47.0391C674.357 47.0026 674.539 46.9583 674.68 46.9062V47.9141C674.529 47.9818 674.318 48.0391 674.047 48.0859C673.781 48.1328 673.521 48.1562 673.266 48.1562C672.812 48.1562 672.401 48.0781 672.031 47.9219C671.661 47.7604 671.365 47.4896 671.141 47.1094C670.922 46.7292 670.812 46.2031 670.812 45.5312V40.4531H669.594V39.8203L670.82 39.3125L671.336 37.4531H672.117V39.4375H674.625V40.4531H672.117V45.4922C672.117 46.0286 672.24 46.4297 672.484 46.6953C672.734 46.9609 673.065 47.0938 673.477 47.0938ZM679.711 39.2812C680.44 39.2812 681.065 39.4427 681.586 39.7656C682.107 40.0885 682.505 40.5417 682.781 41.125C683.057 41.7031 683.195 42.3802 683.195 43.1562V43.9609H677.281C677.297 44.9661 677.547 45.7318 678.031 46.2578C678.516 46.7839 679.198 47.0469 680.078 47.0469C680.62 47.0469 681.099 46.9974 681.516 46.8984C681.932 46.7995 682.365 46.6536 682.812 46.4609V47.6016C682.38 47.7943 681.951 47.9349 681.523 48.0234C681.102 48.112 680.602 48.1562 680.023 48.1562C679.201 48.1562 678.482 47.9896 677.867 47.6562C677.258 47.3177 676.784 46.8229 676.445 46.1719C676.107 45.5208 675.938 44.724 675.938 43.7812C675.938 42.8594 676.091 42.0625 676.398 41.3906C676.711 40.7135 677.148 40.1927 677.711 39.8281C678.279 39.4635 678.945 39.2812 679.711 39.2812ZM679.695 40.3438C679.003 40.3438 678.451 40.5703 678.039 41.0234C677.628 41.4766 677.383 42.1094 677.305 42.9219H681.836C681.831 42.4115 681.75 41.9635 681.594 41.5781C681.443 41.1875 681.211 40.8854 680.898 40.6719C680.586 40.4531 680.185 40.3438 679.695 40.3438ZM687.789 51.8438C686.664 51.8438 685.797 51.6328 685.188 51.2109C684.578 50.7943 684.273 50.2083 684.273 49.4531C684.273 48.9167 684.443 48.4583 684.781 48.0781C685.125 47.6979 685.599 47.4453 686.203 47.3203C685.979 47.2161 685.786 47.0599 685.625 46.8516C685.469 46.6432 685.391 46.4036 685.391 46.1328C685.391 45.8203 685.477 45.5469 685.648 45.3125C685.826 45.0729 686.094 44.8438 686.453 44.625C686.005 44.4427 685.641 44.1354 685.359 43.7031C685.083 43.2656 684.945 42.7578 684.945 42.1797C684.945 41.5651 685.073 41.0417 685.328 40.6094C685.583 40.1719 685.953 39.8385 686.438 39.6094C686.922 39.3802 687.508 39.2656 688.195 39.2656C688.346 39.2656 688.497 39.2734 688.648 39.2891C688.805 39.2995 688.953 39.3177 689.094 39.3438C689.234 39.3646 689.357 39.3906 689.461 39.4219H692.398V40.2578L690.82 40.4531C690.977 40.6562 691.107 40.901 691.211 41.1875C691.315 41.474 691.367 41.7917 691.367 42.1406C691.367 42.9948 691.078 43.6745 690.5 44.1797C689.922 44.6797 689.128 44.9297 688.117 44.9297C687.878 44.9297 687.633 44.9089 687.383 44.8672C687.128 45.0078 686.932 45.1641 686.797 45.3359C686.667 45.5078 686.602 45.7057 686.602 45.9297C686.602 46.0964 686.651 46.2292 686.75 46.3281C686.854 46.4271 687.003 46.5 687.195 46.5469C687.388 46.5885 687.62 46.6094 687.891 46.6094H689.398C690.331 46.6094 691.044 46.8047 691.539 47.1953C692.039 47.5859 692.289 48.1562 692.289 48.9062C692.289 49.8542 691.904 50.5807 691.133 51.0859C690.362 51.5911 689.247 51.8438 687.789 51.8438ZM687.828 50.8281C688.536 50.8281 689.122 50.7552 689.586 50.6094C690.055 50.4688 690.404 50.263 690.633 49.9922C690.867 49.7266 690.984 49.4089 690.984 49.0391C690.984 48.6953 690.906 48.4349 690.75 48.2578C690.594 48.0859 690.365 47.9714 690.062 47.9141C689.76 47.8516 689.391 47.8203 688.953 47.8203H687.469C687.083 47.8203 686.747 47.8802 686.461 48C686.174 48.1198 685.953 48.2969 685.797 48.5312C685.646 48.7656 685.57 49.0573 685.57 49.4062C685.57 49.8698 685.766 50.2214 686.156 50.4609C686.547 50.7057 687.104 50.8281 687.828 50.8281ZM688.164 43.9844C688.784 43.9844 689.25 43.8281 689.562 43.5156C689.875 43.2031 690.031 42.7474 690.031 42.1484C690.031 41.5078 689.872 41.0286 689.555 40.7109C689.237 40.388 688.768 40.2266 688.148 40.2266C687.555 40.2266 687.096 40.3932 686.773 40.7266C686.456 41.0547 686.297 41.5365 686.297 42.1719C686.297 42.7552 686.458 43.2031 686.781 43.5156C687.104 43.8281 687.565 43.9844 688.164 43.9844ZM701.469 43.7031C701.469 44.4062 701.378 45.0339 701.195 45.5859C701.013 46.138 700.75 46.6042 700.406 46.9844C700.062 47.3646 699.646 47.6562 699.156 47.8594C698.672 48.0573 698.122 48.1562 697.508 48.1562C696.935 48.1562 696.409 48.0573 695.93 47.8594C695.456 47.6562 695.044 47.3646 694.695 46.9844C694.352 46.6042 694.083 46.138 693.891 45.5859C693.703 45.0339 693.609 44.4062 693.609 43.7031C693.609 42.7656 693.768 41.9688 694.086 41.3125C694.404 40.651 694.857 40.1484 695.445 39.8047C696.039 39.4557 696.745 39.2812 697.562 39.2812C698.344 39.2812 699.026 39.4557 699.609 39.8047C700.198 40.1536 700.654 40.6589 700.977 41.3203C701.305 41.9766 701.469 42.7708 701.469 43.7031ZM694.953 43.7031C694.953 44.3906 695.044 44.987 695.227 45.4922C695.409 45.9974 695.69 46.388 696.07 46.6641C696.451 46.9401 696.94 47.0781 697.539 47.0781C698.133 47.0781 698.62 46.9401 699 46.6641C699.385 46.388 699.669 45.9974 699.852 45.4922C700.034 44.987 700.125 44.3906 700.125 43.7031C700.125 43.0208 700.034 42.4323 699.852 41.9375C699.669 41.4375 699.388 41.0521 699.008 40.7812C698.628 40.5104 698.135 40.375 697.531 40.375C696.641 40.375 695.987 40.6693 695.57 41.2578C695.159 41.8464 694.953 42.6615 694.953 43.7031ZM707.602 39.2812C707.773 39.2812 707.953 39.2917 708.141 39.3125C708.328 39.3281 708.495 39.3516 708.641 39.3828L708.477 40.5859C708.336 40.5495 708.18 40.5208 708.008 40.5C707.836 40.4792 707.674 40.4688 707.523 40.4688C707.18 40.4688 706.854 40.5391 706.547 40.6797C706.245 40.8151 705.979 41.013 705.75 41.2734C705.521 41.5286 705.341 41.8385 705.211 42.2031C705.081 42.5625 705.016 42.9635 705.016 43.4062V48H703.711V39.4375H704.789L704.93 41.0156H704.984C705.161 40.6979 705.375 40.4089 705.625 40.1484C705.875 39.8828 706.164 39.6719 706.492 39.5156C706.826 39.3594 707.195 39.2812 707.602 39.2812ZM711.555 39.4375V48H710.258V39.4375H711.555ZM710.922 36.2344C711.135 36.2344 711.318 36.3047 711.469 36.4453C711.625 36.5807 711.703 36.7943 711.703 37.0859C711.703 37.3724 711.625 37.5859 711.469 37.7266C711.318 37.8672 711.135 37.9375 710.922 37.9375C710.698 37.9375 710.51 37.8672 710.359 37.7266C710.214 37.5859 710.141 37.3724 710.141 37.0859C710.141 36.7943 710.214 36.5807 710.359 36.4453C710.51 36.3047 710.698 36.2344 710.922 36.2344ZM717.602 39.2812C718.331 39.2812 718.956 39.4427 719.477 39.7656C719.997 40.0885 720.396 40.5417 720.672 41.125C720.948 41.7031 721.086 42.3802 721.086 43.1562V43.9609H715.172C715.188 44.9661 715.438 45.7318 715.922 46.2578C716.406 46.7839 717.089 47.0469 717.969 47.0469C718.51 47.0469 718.99 46.9974 719.406 46.8984C719.823 46.7995 720.255 46.6536 720.703 46.4609V47.6016C720.271 47.7943 719.841 47.9349 719.414 48.0234C718.992 48.112 718.492 48.1562 717.914 48.1562C717.091 48.1562 716.372 47.9896 715.758 47.6562C715.148 47.3177 714.674 46.8229 714.336 46.1719C713.997 45.5208 713.828 44.724 713.828 43.7812C713.828 42.8594 713.982 42.0625 714.289 41.3906C714.602 40.7135 715.039 40.1927 715.602 39.8281C716.169 39.4635 716.836 39.2812 717.602 39.2812ZM717.586 40.3438C716.893 40.3438 716.341 40.5703 715.93 41.0234C715.518 41.4766 715.273 42.1094 715.195 42.9219H719.727C719.721 42.4115 719.641 41.9635 719.484 41.5781C719.333 41.1875 719.102 40.8854 718.789 40.6719C718.477 40.4531 718.076 40.3438 717.586 40.3438ZM728.828 45.6562C728.828 46.2031 728.69 46.6641 728.414 47.0391C728.143 47.4089 727.753 47.6875 727.242 47.875C726.737 48.0625 726.133 48.1562 725.43 48.1562C724.831 48.1562 724.312 48.1094 723.875 48.0156C723.438 47.9219 723.055 47.7891 722.727 47.6172V46.4219C723.076 46.5938 723.492 46.75 723.977 46.8906C724.461 47.0312 724.956 47.1016 725.461 47.1016C726.201 47.1016 726.737 46.9818 727.07 46.7422C727.404 46.5026 727.57 46.1771 727.57 45.7656C727.57 45.5312 727.503 45.3255 727.367 45.1484C727.237 44.9661 727.016 44.7917 726.703 44.625C726.391 44.4531 725.958 44.2656 725.406 44.0625C724.859 43.8542 724.385 43.6484 723.984 43.4453C723.589 43.237 723.281 42.9844 723.062 42.6875C722.849 42.3906 722.742 42.0052 722.742 41.5312C722.742 40.8073 723.034 40.2526 723.617 39.8672C724.206 39.4766 724.977 39.2812 725.93 39.2812C726.445 39.2812 726.927 39.3333 727.375 39.4375C727.828 39.5365 728.25 39.6719 728.641 39.8438L728.203 40.8828C727.849 40.7318 727.471 40.6042 727.07 40.5C726.669 40.3958 726.26 40.3438 725.844 40.3438C725.245 40.3438 724.784 40.4427 724.461 40.6406C724.143 40.8385 723.984 41.1094 723.984 41.4531C723.984 41.7188 724.057 41.9375 724.203 42.1094C724.354 42.2812 724.594 42.4427 724.922 42.5938C725.25 42.7448 725.682 42.9219 726.219 43.125C726.755 43.3229 727.219 43.5286 727.609 43.7422C728 43.9505 728.299 44.2057 728.508 44.5078C728.721 44.8047 728.828 45.1875 728.828 45.6562Z" fill="#5A5A5B"/>
<path d="M780 22.5H620C618.067 22.5 616.5 24.067 616.5 26V58C616.5 59.933 618.067 61.5 620 61.5H780C781.933 61.5 783.5 59.933 783.5 58V26C783.5 24.067 781.933 22.5 780 22.5Z" stroke="#1EAD91" stroke-opacity="0.25"/>
</g>
<path d="M107 162.029H762.967" stroke="black" stroke-opacity="0.12" stroke-width="0.959016" stroke-dasharray="9.59 9.59"/>
<path d="M107 218.611H762.967" stroke="black" stroke-opacity="0.12" stroke-width="0.959016" stroke-dasharray="9.59 9.59"/>
<path d="M107 275.193H762.967" stroke="black" stroke-opacity="0.12" stroke-width="0.959016" stroke-dasharray="9.59 9.59"/>
<path d="M107 331.775H762.967" stroke="black" stroke-opacity="0.12" stroke-width="0.959016" stroke-dasharray="9.59 9.59"/>
<path d="M107 388.357H762.967" stroke="black" stroke-opacity="0.12" stroke-width="0.959016" stroke-dasharray="9.59 9.59"/>
<path d="M107 444.939H762.967" stroke="black" stroke-opacity="0.12" stroke-width="0.959016" stroke-dasharray="9.59 9.59"/>
<path d="M199.066 269.918C147.223 280.968 157.895 328.862 126.18 361.984C118.854 369.635 107 381.164 107 381.164V502H762.967V162.508C762.967 162.508 749.821 173.893 741.869 181.689C687.194 235.285 717.594 329.103 642.131 350.475C556.027 374.861 552.472 183.382 463.754 195.115C395.365 204.159 400.459 323.623 342.918 335.131C282.435 347.228 259.391 257.06 199.066 269.918Z" fill="url(#paint0_linear_1_2)"/>
<path d="M762.967 162.508C762.967 162.508 749.821 173.893 741.869 181.689C687.194 235.285 717.594 329.103 642.131 350.475C556.027 374.861 552.472 183.382 463.754 195.115C395.365 204.159 400.459 323.623 342.918 335.131C282.435 347.228 259.391 257.06 199.066 269.918C147.223 280.968 157.895 328.862 126.18 361.984C118.854 369.635 107 381.164 107 381.164" stroke="#66C8EE" stroke-opacity="0.65" stroke-width="4.79508"/>
<path d="M472 207C479.18 207 485 201.18 485 194C485 186.82 479.18 181 472 181C464.82 181 459 186.82 459 194C459 201.18 464.82 207 472 207Z" fill="#34ADDC" fill-opacity="0.57"/>
<path d="M472 204C477.523 204 482 199.523 482 194C482 188.477 477.523 184 472 184C466.477 184 462 188.477 462 194C462 199.523 466.477 204 472 204Z" fill="white"/>
<path d="M472 201.602C476.199 201.602 479.602 198.199 479.602 194C479.602 189.801 476.199 186.398 472 186.398C467.801 186.398 464.398 189.801 464.398 194C464.398 198.199 467.801 201.602 472 201.602Z" stroke="#66C8EE" stroke-opacity="0.65" stroke-width="4.79508"/>
<path d="M185.233 521L181.533 510.269H181.454C181.472 510.509 181.492 510.837 181.516 511.253C181.539 511.669 181.56 512.114 181.577 512.589C181.595 513.063 181.604 513.518 181.604 513.951V521H179.688V508.15H182.649L186.209 518.407H186.262L189.944 508.15H192.897V521H190.885V513.846C190.885 513.453 190.891 513.028 190.902 512.571C190.92 512.114 190.938 511.681 190.955 511.271C190.979 510.86 190.996 510.532 191.008 510.286H190.938L187.097 521H185.233ZM204.684 516.113C204.684 516.922 204.578 517.64 204.367 518.267C204.156 518.894 203.849 519.424 203.444 519.857C203.04 520.285 202.554 520.613 201.985 520.842C201.417 521.064 200.775 521.176 200.061 521.176C199.393 521.176 198.78 521.064 198.224 520.842C197.667 520.613 197.184 520.285 196.773 519.857C196.369 519.424 196.056 518.894 195.833 518.267C195.61 517.64 195.499 516.922 195.499 516.113C195.499 515.041 195.684 514.133 196.053 513.389C196.428 512.639 196.961 512.067 197.652 511.675C198.344 511.282 199.167 511.086 200.122 511.086C201.019 511.086 201.81 511.282 202.495 511.675C203.181 512.067 203.717 512.639 204.104 513.389C204.49 514.139 204.684 515.047 204.684 516.113ZM197.626 516.113C197.626 516.822 197.711 517.429 197.881 517.933C198.057 518.437 198.326 518.823 198.689 519.093C199.053 519.356 199.521 519.488 200.096 519.488C200.67 519.488 201.139 519.356 201.502 519.093C201.865 518.823 202.132 518.437 202.302 517.933C202.472 517.429 202.557 516.822 202.557 516.113C202.557 515.404 202.472 514.804 202.302 514.312C202.132 513.813 201.865 513.436 201.502 513.178C201.139 512.914 200.667 512.782 200.087 512.782C199.231 512.782 198.607 513.069 198.215 513.644C197.822 514.218 197.626 515.041 197.626 516.113ZM212.128 511.086C213.224 511.086 214.076 511.37 214.686 511.938C215.301 512.501 215.608 513.406 215.608 514.654V521H213.543V515.041C213.543 514.285 213.388 513.72 213.077 513.345C212.767 512.964 212.286 512.773 211.636 512.773C210.692 512.773 210.036 513.063 209.667 513.644C209.304 514.224 209.122 515.064 209.122 516.166V521H207.057V511.271H208.665L208.955 512.589H209.069C209.28 512.249 209.541 511.971 209.852 511.754C210.168 511.531 210.52 511.364 210.906 511.253C211.299 511.142 211.706 511.086 212.128 511.086Z" fill="#5A5A5B"/>
<path d="M326.144 521H324.025V509.943H320.264V508.15H329.896V509.943H326.144V521ZM340.136 511.271V521H338.51L338.229 519.69H338.114C337.909 520.024 337.648 520.303 337.332 520.525C337.016 520.742 336.664 520.903 336.277 521.009C335.891 521.12 335.483 521.176 335.056 521.176C334.323 521.176 333.696 521.053 333.175 520.807C332.659 520.555 332.264 520.168 331.988 519.646C331.713 519.125 331.575 518.451 331.575 517.625V511.271H333.649V517.238C333.649 517.994 333.802 518.56 334.106 518.935C334.417 519.31 334.897 519.497 335.548 519.497C336.175 519.497 336.673 519.368 337.042 519.11C337.411 518.853 337.672 518.472 337.824 517.968C337.982 517.464 338.062 516.846 338.062 516.113V511.271H340.136ZM346.974 511.086C347.841 511.086 348.585 511.265 349.206 511.622C349.827 511.979 350.305 512.486 350.639 513.143C350.973 513.799 351.14 514.584 351.14 515.498V516.605H344.645C344.668 517.549 344.92 518.275 345.4 518.785C345.887 519.295 346.566 519.55 347.439 519.55C348.061 519.55 348.617 519.491 349.109 519.374C349.607 519.251 350.12 519.072 350.647 518.838V520.517C350.161 520.745 349.666 520.912 349.162 521.018C348.658 521.123 348.055 521.176 347.352 521.176C346.396 521.176 345.556 520.991 344.829 520.622C344.108 520.247 343.543 519.69 343.133 518.952C342.729 518.214 342.526 517.297 342.526 516.201C342.526 515.111 342.711 514.186 343.08 513.424C343.449 512.662 343.968 512.082 344.636 511.684C345.304 511.285 346.083 511.086 346.974 511.086ZM346.974 512.642C346.323 512.642 345.796 512.853 345.392 513.274C344.993 513.696 344.759 514.314 344.688 515.129H349.118C349.112 514.643 349.03 514.212 348.872 513.837C348.72 513.462 348.485 513.169 348.169 512.958C347.858 512.747 347.46 512.642 346.974 512.642ZM360.008 518.223C360.008 518.861 359.853 519.4 359.542 519.84C359.231 520.279 358.777 520.613 358.18 520.842C357.588 521.064 356.861 521.176 356 521.176C355.32 521.176 354.734 521.126 354.242 521.026C353.756 520.933 353.296 520.786 352.862 520.587V518.803C353.325 519.02 353.844 519.207 354.418 519.365C354.998 519.523 355.546 519.603 356.062 519.603C356.741 519.603 357.23 519.497 357.529 519.286C357.828 519.069 357.978 518.782 357.978 518.425C357.978 518.214 357.916 518.026 357.793 517.862C357.676 517.692 357.453 517.52 357.125 517.344C356.803 517.162 356.328 516.945 355.701 516.693C355.086 516.447 354.567 516.201 354.146 515.955C353.724 515.709 353.404 515.413 353.188 515.067C352.971 514.716 352.862 514.268 352.862 513.723C352.862 512.861 353.202 512.208 353.882 511.763C354.567 511.312 355.473 511.086 356.598 511.086C357.195 511.086 357.758 511.147 358.285 511.271C358.818 511.388 359.34 511.561 359.85 511.789L359.199 513.345C358.76 513.151 358.317 512.993 357.872 512.87C357.433 512.741 356.984 512.677 356.527 512.677C355.994 512.677 355.587 512.759 355.306 512.923C355.03 513.087 354.893 513.321 354.893 513.626C354.893 513.854 354.96 514.048 355.095 514.206C355.229 514.364 355.461 514.522 355.789 514.681C356.123 514.839 356.586 515.035 357.178 515.27C357.758 515.492 358.259 515.727 358.681 515.973C359.108 516.213 359.437 516.509 359.665 516.86C359.894 517.212 360.008 517.666 360.008 518.223Z" fill="#5A5A5B"/>
<path d="M488.884 508.15L485.526 521H483.224L481.079 513.301C481.026 513.113 480.968 512.891 480.903 512.633C480.839 512.375 480.774 512.111 480.71 511.842C480.651 511.572 480.599 511.326 480.552 511.104C480.511 510.875 480.481 510.699 480.464 510.576C480.452 510.699 480.426 510.872 480.385 511.095C480.344 511.317 480.294 511.563 480.235 511.833C480.183 512.097 480.124 512.36 480.06 512.624C479.995 512.882 479.937 513.11 479.884 513.31L477.774 521H475.48L472.132 508.15H474.25L476.104 515.683C476.163 515.923 476.222 516.184 476.28 516.465C476.345 516.74 476.403 517.019 476.456 517.3C476.515 517.581 476.567 517.856 476.614 518.126C476.661 518.39 476.699 518.63 476.729 518.847C476.758 518.624 476.796 518.378 476.843 518.108C476.89 517.833 476.939 517.555 476.992 517.273C477.051 516.986 477.109 516.711 477.168 516.447C477.232 516.184 477.297 515.946 477.361 515.735L479.453 508.15H481.51L483.646 515.762C483.71 515.979 483.771 516.222 483.83 516.491C483.895 516.761 483.956 517.036 484.015 517.317C484.073 517.599 484.126 517.871 484.173 518.135C484.22 518.398 484.258 518.636 484.287 518.847C484.328 518.56 484.381 518.231 484.445 517.862C484.51 517.493 484.583 517.118 484.665 516.737C484.747 516.356 484.829 516.005 484.911 515.683L486.757 508.15H488.884ZM494.368 511.086C495.235 511.086 495.979 511.265 496.601 511.622C497.222 511.979 497.699 512.486 498.033 513.143C498.367 513.799 498.534 514.584 498.534 515.498V516.605H492.039C492.062 517.549 492.314 518.275 492.795 518.785C493.281 519.295 493.961 519.55 494.834 519.55C495.455 519.55 496.012 519.491 496.504 519.374C497.002 519.251 497.515 519.072 498.042 518.838V520.517C497.556 520.745 497.061 520.912 496.557 521.018C496.053 521.123 495.449 521.176 494.746 521.176C493.791 521.176 492.95 520.991 492.224 520.622C491.503 520.247 490.938 519.69 490.527 518.952C490.123 518.214 489.921 517.297 489.921 516.201C489.921 515.111 490.105 514.186 490.475 513.424C490.844 512.662 491.362 512.082 492.03 511.684C492.698 511.285 493.478 511.086 494.368 511.086ZM494.368 512.642C493.718 512.642 493.19 512.853 492.786 513.274C492.388 513.696 492.153 514.314 492.083 515.129H496.513C496.507 514.643 496.425 514.212 496.267 513.837C496.114 513.462 495.88 513.169 495.563 512.958C495.253 512.747 494.854 512.642 494.368 512.642ZM504.133 521.176C502.973 521.176 502.041 520.754 501.338 519.91C500.641 519.061 500.292 517.81 500.292 516.157C500.292 514.487 500.646 513.225 501.355 512.369C502.07 511.514 503.011 511.086 504.177 511.086C504.669 511.086 505.1 511.153 505.469 511.288C505.838 511.417 506.154 511.593 506.418 511.815C506.688 512.038 506.916 512.287 507.104 512.562H507.2C507.171 512.381 507.136 512.12 507.095 511.78C507.06 511.435 507.042 511.115 507.042 510.822V507.324H509.116V521H507.499L507.13 519.673H507.042C506.866 519.954 506.644 520.209 506.374 520.438C506.11 520.66 505.794 520.839 505.425 520.974C505.062 521.108 504.631 521.176 504.133 521.176ZM504.713 519.497C505.598 519.497 506.222 519.242 506.585 518.732C506.948 518.223 507.136 517.458 507.147 516.438V516.166C507.147 515.076 506.972 514.241 506.62 513.661C506.269 513.075 505.627 512.782 504.695 512.782C503.951 512.782 503.383 513.084 502.99 513.688C502.604 514.285 502.41 515.12 502.41 516.192C502.41 517.265 502.604 518.085 502.99 518.653C503.383 519.216 503.957 519.497 504.713 519.497Z" fill="black"/>
<path d="M624.144 521H622.025V509.943H618.264V508.15H627.896V509.943H624.144V521ZM631.72 507.324V510.761C631.72 511.118 631.708 511.467 631.685 511.807C631.667 512.146 631.646 512.41 631.623 512.598H631.737C631.942 512.258 632.194 511.979 632.493 511.763C632.792 511.54 633.126 511.373 633.495 511.262C633.87 511.15 634.269 511.095 634.69 511.095C635.435 511.095 636.067 511.221 636.589 511.473C637.11 511.719 637.509 512.103 637.784 512.624C638.065 513.146 638.206 513.822 638.206 514.654V521H636.141V515.041C636.141 514.285 635.985 513.72 635.675 513.345C635.364 512.964 634.884 512.773 634.233 512.773C633.606 512.773 633.108 512.905 632.739 513.169C632.376 513.427 632.115 513.811 631.957 514.32C631.799 514.824 631.72 515.439 631.72 516.166V521H629.654V507.324H631.72ZM649.579 511.271V521H647.953L647.672 519.69H647.558C647.353 520.024 647.092 520.303 646.775 520.525C646.459 520.742 646.107 520.903 645.721 521.009C645.334 521.12 644.927 521.176 644.499 521.176C643.767 521.176 643.14 521.053 642.618 520.807C642.103 520.555 641.707 520.168 641.432 519.646C641.156 519.125 641.019 518.451 641.019 517.625V511.271H643.093V517.238C643.093 517.994 643.245 518.56 643.55 518.935C643.86 519.31 644.341 519.497 644.991 519.497C645.618 519.497 646.116 519.368 646.485 519.11C646.854 518.853 647.115 518.472 647.268 517.968C647.426 517.464 647.505 516.846 647.505 516.113V511.271H649.579ZM657.472 511.086C657.636 511.086 657.814 511.095 658.008 511.112C658.201 511.13 658.368 511.153 658.509 511.183L658.315 513.116C658.192 513.081 658.04 513.055 657.858 513.037C657.683 513.02 657.524 513.011 657.384 513.011C657.015 513.011 656.663 513.072 656.329 513.195C655.995 513.312 655.699 513.494 655.441 513.74C655.184 513.98 654.981 514.282 654.835 514.646C654.688 515.009 654.615 515.431 654.615 515.911V521H652.541V511.271H654.158L654.439 512.984H654.536C654.729 512.639 654.97 512.322 655.257 512.035C655.544 511.748 655.872 511.52 656.241 511.35C656.616 511.174 657.026 511.086 657.472 511.086ZM666.85 518.223C666.85 518.861 666.694 519.4 666.384 519.84C666.073 520.279 665.619 520.613 665.021 520.842C664.43 521.064 663.703 521.176 662.842 521.176C662.162 521.176 661.576 521.126 661.084 521.026C660.598 520.933 660.138 520.786 659.704 520.587V518.803C660.167 519.02 660.686 519.207 661.26 519.365C661.84 519.523 662.388 519.603 662.903 519.603C663.583 519.603 664.072 519.497 664.371 519.286C664.67 519.069 664.819 518.782 664.819 518.425C664.819 518.214 664.758 518.026 664.635 517.862C664.518 517.692 664.295 517.52 663.967 517.344C663.645 517.162 663.17 516.945 662.543 516.693C661.928 516.447 661.409 516.201 660.987 515.955C660.565 515.709 660.246 515.413 660.029 515.067C659.812 514.716 659.704 514.268 659.704 513.723C659.704 512.861 660.044 512.208 660.724 511.763C661.409 511.312 662.314 511.086 663.439 511.086C664.037 511.086 664.6 511.147 665.127 511.271C665.66 511.388 666.182 511.561 666.691 511.789L666.041 513.345C665.602 513.151 665.159 512.993 664.714 512.87C664.274 512.741 663.826 512.677 663.369 512.677C662.836 512.677 662.429 512.759 662.147 512.923C661.872 513.087 661.734 513.321 661.734 513.626C661.734 513.854 661.802 514.048 661.937 514.206C662.071 514.364 662.303 514.522 662.631 514.681C662.965 514.839 663.428 515.035 664.02 515.27C664.6 515.492 665.101 515.727 665.522 515.973C665.95 516.213 666.278 516.509 666.507 516.86C666.735 517.212 666.85 517.666 666.85 518.223Z" fill="#5A5A5B"/>
<path d="M743.779 521H741.688V508.15H748.947V509.926H743.779V513.934H748.613V515.7H743.779V521ZM756.005 511.086C756.169 511.086 756.348 511.095 756.541 511.112C756.734 511.13 756.901 511.153 757.042 511.183L756.849 513.116C756.726 513.081 756.573 513.055 756.392 513.037C756.216 513.02 756.058 513.011 755.917 513.011C755.548 513.011 755.196 513.072 754.862 513.195C754.528 513.312 754.232 513.494 753.975 513.74C753.717 513.98 753.515 514.282 753.368 514.646C753.222 515.009 753.148 515.431 753.148 515.911V521H751.074V511.271H752.691L752.973 512.984H753.069C753.263 512.639 753.503 512.322 753.79 512.035C754.077 511.748 754.405 511.52 754.774 511.35C755.149 511.174 755.56 511.086 756.005 511.086ZM760.909 511.271V521H758.844V511.271H760.909ZM759.89 507.544C760.206 507.544 760.479 507.629 760.707 507.799C760.941 507.969 761.059 508.262 761.059 508.678C761.059 509.088 760.941 509.381 760.707 509.557C760.479 509.727 760.206 509.812 759.89 509.812C759.562 509.812 759.283 509.727 759.055 509.557C758.832 509.381 758.721 509.088 758.721 508.678C758.721 508.262 758.832 507.969 759.055 507.799C759.283 507.629 759.562 507.544 759.89 507.544Z" fill="#5A5A5B"/>
<path d="M62.1768 443.967C63.0029 443.967 63.7295 444.116 64.3564 444.415C64.9893 444.708 65.4814 445.142 65.833 445.716C66.1846 446.284 66.3604 446.981 66.3604 447.808C66.3604 448.71 66.1699 449.489 65.7891 450.146C65.4082 450.796 64.8486 451.297 64.1104 451.648C63.3721 452 62.4727 452.176 61.4121 452.176C60.7383 452.176 60.1084 452.117 59.5225 452C58.9424 451.883 58.4414 451.707 58.0195 451.473V449.609C58.459 449.855 58.9863 450.058 59.6016 450.216C60.2168 450.368 60.8057 450.444 61.3682 450.444C61.9658 450.444 62.4785 450.356 62.9062 450.181C63.334 450.005 63.6621 449.735 63.8906 449.372C64.125 449.009 64.2422 448.549 64.2422 447.992C64.2422 447.254 64.0049 446.686 63.5303 446.287C63.0615 445.883 62.3262 445.681 61.3242 445.681C60.9727 445.681 60.5977 445.713 60.1992 445.777C59.8066 445.836 59.4785 445.9 59.2148 445.971L58.3096 445.435L58.793 439.15H65.4727V440.97H60.6123L60.3311 444.169C60.542 444.122 60.7939 444.078 61.0869 444.037C61.3799 443.99 61.7432 443.967 62.1768 443.967ZM76.8105 445.566C76.8105 446.604 76.7285 447.532 76.5645 448.353C76.4062 449.167 76.1543 449.858 75.8086 450.427C75.4629 450.995 75.0117 451.429 74.4551 451.728C73.8984 452.026 73.2246 452.176 72.4336 452.176C71.4434 452.176 70.626 451.915 69.9814 451.394C69.3369 450.866 68.8594 450.11 68.5488 449.126C68.2383 448.136 68.083 446.949 68.083 445.566C68.083 444.184 68.2236 443 68.5049 442.016C68.792 441.025 69.2549 440.267 69.8936 439.739C70.5322 439.212 71.3789 438.948 72.4336 438.948C73.4297 438.948 74.25 439.212 74.8945 439.739C75.5449 440.261 76.0254 441.017 76.3359 442.007C76.6523 442.991 76.8105 444.178 76.8105 445.566ZM70.166 445.566C70.166 446.65 70.2363 447.556 70.377 448.282C70.5234 449.009 70.7637 449.554 71.0977 449.917C71.4316 450.274 71.877 450.453 72.4336 450.453C72.9902 450.453 73.4355 450.274 73.7695 449.917C74.1035 449.56 74.3438 449.018 74.4902 448.291C74.6426 447.564 74.7188 446.656 74.7188 445.566C74.7188 444.488 74.6455 443.586 74.499 442.859C74.3525 442.133 74.1123 441.588 73.7783 441.225C73.4443 440.855 72.9961 440.671 72.4336 440.671C71.8711 440.671 71.4229 440.855 71.0889 441.225C70.7607 441.588 70.5234 442.133 70.377 442.859C70.2363 443.586 70.166 444.488 70.166 445.566ZM81.1436 438.324V444.934C81.1436 445.232 81.1318 445.561 81.1084 445.918C81.085 446.27 81.0615 446.601 81.0381 446.911H81.082C81.2344 446.706 81.416 446.466 81.627 446.19C81.8438 445.915 82.0488 445.675 82.2422 445.47L85.2129 442.271H87.5859L83.6924 446.454L87.8408 452H85.415L82.3037 447.729L81.1436 448.722V452H79.0781V438.324H81.1436Z" fill="#5A5A5B"/>
<path d="M63.8818 396H61.8076V387.729C61.8076 387.454 61.8105 387.179 61.8164 386.903C61.8223 386.628 61.8281 386.358 61.834 386.095C61.8457 385.831 61.8604 385.579 61.8779 385.339C61.7549 385.474 61.6025 385.62 61.4209 385.778C61.2451 385.937 61.0576 386.101 60.8584 386.271L59.3818 387.448L58.3447 386.139L62.1592 383.15H63.8818V396ZM76.8105 389.566C76.8105 390.604 76.7285 391.532 76.5645 392.353C76.4062 393.167 76.1543 393.858 75.8086 394.427C75.4629 394.995 75.0117 395.429 74.4551 395.728C73.8984 396.026 73.2246 396.176 72.4336 396.176C71.4434 396.176 70.626 395.915 69.9814 395.394C69.3369 394.866 68.8594 394.11 68.5488 393.126C68.2383 392.136 68.083 390.949 68.083 389.566C68.083 388.184 68.2236 387 68.5049 386.016C68.792 385.025 69.2549 384.267 69.8936 383.739C70.5322 383.212 71.3789 382.948 72.4336 382.948C73.4297 382.948 74.25 383.212 74.8945 383.739C75.5449 384.261 76.0254 385.017 76.3359 386.007C76.6523 386.991 76.8105 388.178 76.8105 389.566ZM70.166 389.566C70.166 390.65 70.2363 391.556 70.377 392.282C70.5234 393.009 70.7637 393.554 71.0977 393.917C71.4316 394.274 71.877 394.453 72.4336 394.453C72.9902 394.453 73.4355 394.274 73.7695 393.917C74.1035 393.56 74.3438 393.018 74.4902 392.291C74.6426 391.564 74.7188 390.656 74.7188 389.566C74.7188 388.488 74.6455 387.586 74.499 386.859C74.3525 386.133 74.1123 385.588 73.7783 385.225C73.4443 384.855 72.9961 384.671 72.4336 384.671C71.8711 384.671 71.4229 384.855 71.0889 385.225C70.7607 385.588 70.5234 386.133 70.377 386.859C70.2363 387.586 70.166 388.488 70.166 389.566ZM87.1113 389.566C87.1113 390.604 87.0293 391.532 86.8652 392.353C86.707 393.167 86.4551 393.858 86.1094 394.427C85.7637 394.995 85.3125 395.429 84.7559 395.728C84.1992 396.026 83.5254 396.176 82.7344 396.176C81.7441 396.176 80.9268 395.915 80.2822 395.394C79.6377 394.866 79.1602 394.11 78.8496 393.126C78.5391 392.136 78.3838 390.949 78.3838 389.566C78.3838 388.184 78.5244 387 78.8057 386.016C79.0928 385.025 79.5557 384.267 80.1943 383.739C80.833 383.212 81.6797 382.948 82.7344 382.948C83.7305 382.948 84.5508 383.212 85.1953 383.739C85.8457 384.261 86.3262 385.017 86.6367 386.007C86.9531 386.991 87.1113 388.178 87.1113 389.566ZM80.4668 389.566C80.4668 390.65 80.5371 391.556 80.6777 392.282C80.8242 393.009 81.0645 393.554 81.3984 393.917C81.7324 394.274 82.1777 394.453 82.7344 394.453C83.291 394.453 83.7363 394.274 84.0703 393.917C84.4043 393.56 84.6445 393.018 84.791 392.291C84.9434 391.564 85.0195 390.656 85.0195 389.566C85.0195 388.488 84.9463 387.586 84.7998 386.859C84.6533 386.133 84.4131 385.588 84.0791 385.225C83.7451 384.855 83.2969 384.671 82.7344 384.671C82.1719 384.671 81.7236 384.855 81.3896 385.225C81.0615 385.588 80.8242 386.133 80.6777 386.859C80.5371 387.586 80.4668 388.488 80.4668 389.566ZM91.4443 382.324V388.934C91.4443 389.232 91.4326 389.561 91.4092 389.918C91.3857 390.27 91.3623 390.601 91.3389 390.911H91.3828C91.5352 390.706 91.7168 390.466 91.9277 390.19C92.1445 389.915 92.3496 389.675 92.543 389.47L95.5137 386.271H97.8867L93.9932 390.454L98.1416 396H95.7158L92.6045 391.729L91.4443 392.722V396H89.3789V382.324H91.4443Z" fill="#5A5A5B"/>
<path d="M63.8818 339H61.8076V330.729C61.8076 330.454 61.8105 330.179 61.8164 329.903C61.8223 329.628 61.8281 329.358 61.834 329.095C61.8457 328.831 61.8604 328.579 61.8779 328.339C61.7549 328.474 61.6025 328.62 61.4209 328.778C61.2451 328.937 61.0576 329.101 60.8584 329.271L59.3818 330.448L58.3447 329.139L62.1592 326.15H63.8818V339ZM72.4775 330.967C73.3037 330.967 74.0303 331.116 74.6572 331.415C75.29 331.708 75.7822 332.142 76.1338 332.716C76.4854 333.284 76.6611 333.981 76.6611 334.808C76.6611 335.71 76.4707 336.489 76.0898 337.146C75.709 337.796 75.1494 338.297 74.4111 338.648C73.6729 339 72.7734 339.176 71.7129 339.176C71.0391 339.176 70.4092 339.117 69.8232 339C69.2432 338.883 68.7422 338.707 68.3203 338.473V336.609C68.7598 336.855 69.2871 337.058 69.9023 337.216C70.5176 337.368 71.1064 337.444 71.6689 337.444C72.2666 337.444 72.7793 337.356 73.207 337.181C73.6348 337.005 73.9629 336.735 74.1914 336.372C74.4258 336.009 74.543 335.549 74.543 334.992C74.543 334.254 74.3057 333.686 73.8311 333.287C73.3623 332.883 72.627 332.681 71.625 332.681C71.2734 332.681 70.8984 332.713 70.5 332.777C70.1074 332.836 69.7793 332.9 69.5156 332.971L68.6104 332.435L69.0938 326.15H75.7734V327.97H70.9131L70.6318 331.169C70.8428 331.122 71.0947 331.078 71.3877 331.037C71.6807 330.99 72.0439 330.967 72.4775 330.967ZM87.1113 332.566C87.1113 333.604 87.0293 334.532 86.8652 335.353C86.707 336.167 86.4551 336.858 86.1094 337.427C85.7637 337.995 85.3125 338.429 84.7559 338.728C84.1992 339.026 83.5254 339.176 82.7344 339.176C81.7441 339.176 80.9268 338.915 80.2822 338.394C79.6377 337.866 79.1602 337.11 78.8496 336.126C78.5391 335.136 78.3838 333.949 78.3838 332.566C78.3838 331.184 78.5244 330 78.8057 329.016C79.0928 328.025 79.5557 327.267 80.1943 326.739C80.833 326.212 81.6797 325.948 82.7344 325.948C83.7305 325.948 84.5508 326.212 85.1953 326.739C85.8457 327.261 86.3262 328.017 86.6367 329.007C86.9531 329.991 87.1113 331.178 87.1113 332.566ZM80.4668 332.566C80.4668 333.65 80.5371 334.556 80.6777 335.282C80.8242 336.009 81.0645 336.554 81.3984 336.917C81.7324 337.274 82.1777 337.453 82.7344 337.453C83.291 337.453 83.7363 337.274 84.0703 336.917C84.4043 336.56 84.6445 336.018 84.791 335.291C84.9434 334.564 85.0195 333.656 85.0195 332.566C85.0195 331.488 84.9463 330.586 84.7998 329.859C84.6533 329.133 84.4131 328.588 84.0791 328.225C83.7451 327.855 83.2969 327.671 82.7344 327.671C82.1719 327.671 81.7236 327.855 81.3896 328.225C81.0615 328.588 80.8242 329.133 80.6777 329.859C80.5371 330.586 80.4668 331.488 80.4668 332.566ZM91.4443 325.324V331.934C91.4443 332.232 91.4326 332.561 91.4092 332.918C91.3857 333.27 91.3623 333.601 91.3389 333.911H91.3828C91.5352 333.706 91.7168 333.466 91.9277 333.19C92.1445 332.915 92.3496 332.675 92.543 332.47L95.5137 329.271H97.8867L93.9932 333.454L98.1416 339H95.7158L92.6045 334.729L91.4443 335.722V339H89.3789V325.324H91.4443Z" fill="#5A5A5B"/>
<path d="M66.5098 283H57.8086V281.444L61.1396 278.069C61.7842 277.413 62.3145 276.848 62.7305 276.373C63.1465 275.893 63.4541 275.438 63.6533 275.011C63.8584 274.583 63.9609 274.117 63.9609 273.613C63.9609 272.992 63.7822 272.523 63.4248 272.207C63.0674 271.885 62.5957 271.724 62.0098 271.724C61.4531 271.724 60.9375 271.835 60.4629 272.058C59.9941 272.274 59.5078 272.585 59.0039 272.989L57.8701 271.627C58.2275 271.322 58.6084 271.044 59.0127 270.792C59.4229 270.54 59.8799 270.341 60.3838 270.194C60.8877 270.042 61.4619 269.966 62.1064 269.966C62.9209 269.966 63.624 270.112 64.2158 270.405C64.8076 270.692 65.2617 271.094 65.5781 271.609C65.9004 272.125 66.0615 272.726 66.0615 273.411C66.0615 274.103 65.9238 274.741 65.6484 275.327C65.373 275.913 64.9805 276.493 64.4707 277.067C63.9609 277.636 63.3545 278.254 62.6514 278.922L60.4277 281.093V281.189H66.5098V283ZM76.8105 276.566C76.8105 277.604 76.7285 278.532 76.5645 279.353C76.4062 280.167 76.1543 280.858 75.8086 281.427C75.4629 281.995 75.0117 282.429 74.4551 282.728C73.8984 283.026 73.2246 283.176 72.4336 283.176C71.4434 283.176 70.626 282.915 69.9814 282.394C69.3369 281.866 68.8594 281.11 68.5488 280.126C68.2383 279.136 68.083 277.949 68.083 276.566C68.083 275.184 68.2236 274 68.5049 273.016C68.792 272.025 69.2549 271.267 69.8936 270.739C70.5322 270.212 71.3789 269.948 72.4336 269.948C73.4297 269.948 74.25 270.212 74.8945 270.739C75.5449 271.261 76.0254 272.017 76.3359 273.007C76.6523 273.991 76.8105 275.178 76.8105 276.566ZM70.166 276.566C70.166 277.65 70.2363 278.556 70.377 279.282C70.5234 280.009 70.7637 280.554 71.0977 280.917C71.4316 281.274 71.877 281.453 72.4336 281.453C72.9902 281.453 73.4355 281.274 73.7695 280.917C74.1035 280.56 74.3438 280.018 74.4902 279.291C74.6426 278.564 74.7188 277.656 74.7188 276.566C74.7188 275.488 74.6455 274.586 74.499 273.859C74.3525 273.133 74.1123 272.588 73.7783 272.225C73.4443 271.855 72.9961 271.671 72.4336 271.671C71.8711 271.671 71.4229 271.855 71.0889 272.225C70.7607 272.588 70.5234 273.133 70.377 273.859C70.2363 274.586 70.166 275.488 70.166 276.566ZM87.1113 276.566C87.1113 277.604 87.0293 278.532 86.8652 279.353C86.707 280.167 86.4551 280.858 86.1094 281.427C85.7637 281.995 85.3125 282.429 84.7559 282.728C84.1992 283.026 83.5254 283.176 82.7344 283.176C81.7441 283.176 80.9268 282.915 80.2822 282.394C79.6377 281.866 79.1602 281.11 78.8496 280.126C78.5391 279.136 78.3838 277.949 78.3838 276.566C78.3838 275.184 78.5244 274 78.8057 273.016C79.0928 272.025 79.5557 271.267 80.1943 270.739C80.833 270.212 81.6797 269.948 82.7344 269.948C83.7305 269.948 84.5508 270.212 85.1953 270.739C85.8457 271.261 86.3262 272.017 86.6367 273.007C86.9531 273.991 87.1113 275.178 87.1113 276.566ZM80.4668 276.566C80.4668 277.65 80.5371 278.556 80.6777 279.282C80.8242 280.009 81.0645 280.554 81.3984 280.917C81.7324 281.274 82.1777 281.453 82.7344 281.453C83.291 281.453 83.7363 281.274 84.0703 280.917C84.4043 280.56 84.6445 280.018 84.791 279.291C84.9434 278.564 85.0195 277.656 85.0195 276.566C85.0195 275.488 84.9463 274.586 84.7998 273.859C84.6533 273.133 84.4131 272.588 84.0791 272.225C83.7451 271.855 83.2969 271.671 82.7344 271.671C82.1719 271.671 81.7236 271.855 81.3896 272.225C81.0615 272.588 80.8242 273.133 80.6777 273.859C80.5371 274.586 80.4668 275.488 80.4668 276.566ZM91.4443 269.324V275.934C91.4443 276.232 91.4326 276.561 91.4092 276.918C91.3857 277.27 91.3623 277.601 91.3389 277.911H91.3828C91.5352 277.706 91.7168 277.466 91.9277 277.19C92.1445 276.915 92.3496 276.675 92.543 276.47L95.5137 273.271H97.8867L93.9932 277.454L98.1416 283H95.7158L92.6045 278.729L91.4443 279.722V283H89.3789V269.324H91.4443Z" fill="#5A5A5B"/>
<path d="M66.5098 226H57.8086V224.444L61.1396 221.069C61.7842 220.413 62.3145 219.848 62.7305 219.373C63.1465 218.893 63.4541 218.438 63.6533 218.011C63.8584 217.583 63.9609 217.117 63.9609 216.613C63.9609 215.992 63.7822 215.523 63.4248 215.207C63.0674 214.885 62.5957 214.724 62.0098 214.724C61.4531 214.724 60.9375 214.835 60.4629 215.058C59.9941 215.274 59.5078 215.585 59.0039 215.989L57.8701 214.627C58.2275 214.322 58.6084 214.044 59.0127 213.792C59.4229 213.54 59.8799 213.341 60.3838 213.194C60.8877 213.042 61.4619 212.966 62.1064 212.966C62.9209 212.966 63.624 213.112 64.2158 213.405C64.8076 213.692 65.2617 214.094 65.5781 214.609C65.9004 215.125 66.0615 215.726 66.0615 216.411C66.0615 217.103 65.9238 217.741 65.6484 218.327C65.373 218.913 64.9805 219.493 64.4707 220.067C63.9609 220.636 63.3545 221.254 62.6514 221.922L60.4277 224.093V224.189H66.5098V226ZM72.4775 217.967C73.3037 217.967 74.0303 218.116 74.6572 218.415C75.29 218.708 75.7822 219.142 76.1338 219.716C76.4854 220.284 76.6611 220.981 76.6611 221.808C76.6611 222.71 76.4707 223.489 76.0898 224.146C75.709 224.796 75.1494 225.297 74.4111 225.648C73.6729 226 72.7734 226.176 71.7129 226.176C71.0391 226.176 70.4092 226.117 69.8232 226C69.2432 225.883 68.7422 225.707 68.3203 225.473V223.609C68.7598 223.855 69.2871 224.058 69.9023 224.216C70.5176 224.368 71.1064 224.444 71.6689 224.444C72.2666 224.444 72.7793 224.356 73.207 224.181C73.6348 224.005 73.9629 223.735 74.1914 223.372C74.4258 223.009 74.543 222.549 74.543 221.992C74.543 221.254 74.3057 220.686 73.8311 220.287C73.3623 219.883 72.627 219.681 71.625 219.681C71.2734 219.681 70.8984 219.713 70.5 219.777C70.1074 219.836 69.7793 219.9 69.5156 219.971L68.6104 219.435L69.0938 213.15H75.7734V214.97H70.9131L70.6318 218.169C70.8428 218.122 71.0947 218.078 71.3877 218.037C71.6807 217.99 72.0439 217.967 72.4775 217.967ZM87.1113 219.566C87.1113 220.604 87.0293 221.532 86.8652 222.353C86.707 223.167 86.4551 223.858 86.1094 224.427C85.7637 224.995 85.3125 225.429 84.7559 225.728C84.1992 226.026 83.5254 226.176 82.7344 226.176C81.7441 226.176 80.9268 225.915 80.2822 225.394C79.6377 224.866 79.1602 224.11 78.8496 223.126C78.5391 222.136 78.3838 220.949 78.3838 219.566C78.3838 218.184 78.5244 217 78.8057 216.016C79.0928 215.025 79.5557 214.267 80.1943 213.739C80.833 213.212 81.6797 212.948 82.7344 212.948C83.7305 212.948 84.5508 213.212 85.1953 213.739C85.8457 214.261 86.3262 215.017 86.6367 216.007C86.9531 216.991 87.1113 218.178 87.1113 219.566ZM80.4668 219.566C80.4668 220.65 80.5371 221.556 80.6777 222.282C80.8242 223.009 81.0645 223.554 81.3984 223.917C81.7324 224.274 82.1777 224.453 82.7344 224.453C83.291 224.453 83.7363 224.274 84.0703 223.917C84.4043 223.56 84.6445 223.018 84.791 222.291C84.9434 221.564 85.0195 220.656 85.0195 219.566C85.0195 218.488 84.9463 217.586 84.7998 216.859C84.6533 216.133 84.4131 215.588 84.0791 215.225C83.7451 214.855 83.2969 214.671 82.7344 214.671C82.1719 214.671 81.7236 214.855 81.3896 215.225C81.0615 215.588 80.8242 216.133 80.6777 216.859C80.5371 217.586 80.4668 218.488 80.4668 219.566ZM91.4443 212.324V218.934C91.4443 219.232 91.4326 219.561 91.4092 219.918C91.3857 220.27 91.3623 220.601 91.3389 220.911H91.3828C91.5352 220.706 91.7168 220.466 91.9277 220.19C92.1445 219.915 92.3496 219.675 92.543 219.47L95.5137 216.271H97.8867L93.9932 220.454L98.1416 226H95.7158L92.6045 221.729L91.4443 222.722V226H89.3789V212.324H91.4443Z" fill="#5A5A5B"/>
<path d="M66.0176 160.086C66.0176 160.666 65.9004 161.17 65.666 161.598C65.4316 162.025 65.1094 162.377 64.6992 162.652C64.2949 162.922 63.8262 163.115 63.293 163.232V163.294C64.3184 163.423 65.0918 163.745 65.6133 164.261C66.1406 164.776 66.4043 165.459 66.4043 166.309C66.4043 167.053 66.2256 167.718 65.8682 168.304C65.5107 168.884 64.9629 169.341 64.2246 169.675C63.4863 170.009 62.5371 170.176 61.377 170.176C60.6797 170.176 60.0322 170.12 59.4346 170.009C58.8428 169.897 58.2803 169.719 57.7471 169.473V167.636C58.292 167.905 58.8721 168.113 59.4873 168.26C60.1025 168.406 60.6855 168.479 61.2363 168.479C62.3086 168.479 63.0732 168.28 63.5303 167.882C63.9873 167.478 64.2158 166.921 64.2158 166.212C64.2158 165.755 64.0957 165.38 63.8555 165.087C63.6211 164.794 63.2549 164.574 62.7568 164.428C62.2646 164.281 61.6289 164.208 60.8496 164.208H59.7158V162.547H60.8584C61.6025 162.547 62.2002 162.459 62.6514 162.283C63.1025 162.102 63.4277 161.853 63.627 161.536C63.832 161.22 63.9346 160.851 63.9346 160.429C63.9346 159.878 63.7559 159.45 63.3984 159.146C63.041 158.835 62.5107 158.68 61.8076 158.68C61.374 158.68 60.9785 158.729 60.6211 158.829C60.2695 158.929 59.9443 159.055 59.6455 159.207C59.3467 159.359 59.0625 159.523 58.793 159.699L57.7998 158.267C58.2861 157.903 58.8662 157.596 59.54 157.344C60.2139 157.092 60.999 156.966 61.8955 156.966C63.2139 156.966 64.2305 157.25 64.9453 157.818C65.6602 158.381 66.0176 159.137 66.0176 160.086ZM76.8105 163.566C76.8105 164.604 76.7285 165.532 76.5645 166.353C76.4062 167.167 76.1543 167.858 75.8086 168.427C75.4629 168.995 75.0117 169.429 74.4551 169.728C73.8984 170.026 73.2246 170.176 72.4336 170.176C71.4434 170.176 70.626 169.915 69.9814 169.394C69.3369 168.866 68.8594 168.11 68.5488 167.126C68.2383 166.136 68.083 164.949 68.083 163.566C68.083 162.184 68.2236 161 68.5049 160.016C68.792 159.025 69.2549 158.267 69.8936 157.739C70.5322 157.212 71.3789 156.948 72.4336 156.948C73.4297 156.948 74.25 157.212 74.8945 157.739C75.5449 158.261 76.0254 159.017 76.3359 160.007C76.6523 160.991 76.8105 162.178 76.8105 163.566ZM70.166 163.566C70.166 164.65 70.2363 165.556 70.377 166.282C70.5234 167.009 70.7637 167.554 71.0977 167.917C71.4316 168.274 71.877 168.453 72.4336 168.453C72.9902 168.453 73.4355 168.274 73.7695 167.917C74.1035 167.56 74.3438 167.018 74.4902 166.291C74.6426 165.564 74.7188 164.656 74.7188 163.566C74.7188 162.488 74.6455 161.586 74.499 160.859C74.3525 160.133 74.1123 159.588 73.7783 159.225C73.4443 158.855 72.9961 158.671 72.4336 158.671C71.8711 158.671 71.4229 158.855 71.0889 159.225C70.7607 159.588 70.5234 160.133 70.377 160.859C70.2363 161.586 70.166 162.488 70.166 163.566ZM87.1113 163.566C87.1113 164.604 87.0293 165.532 86.8652 166.353C86.707 167.167 86.4551 167.858 86.1094 168.427C85.7637 168.995 85.3125 169.429 84.7559 169.728C84.1992 170.026 83.5254 170.176 82.7344 170.176C81.7441 170.176 80.9268 169.915 80.2822 169.394C79.6377 168.866 79.1602 168.11 78.8496 167.126C78.5391 166.136 78.3838 164.949 78.3838 163.566C78.3838 162.184 78.5244 161 78.8057 160.016C79.0928 159.025 79.5557 158.267 80.1943 157.739C80.833 157.212 81.6797 156.948 82.7344 156.948C83.7305 156.948 84.5508 157.212 85.1953 157.739C85.8457 158.261 86.3262 159.017 86.6367 160.007C86.9531 160.991 87.1113 162.178 87.1113 163.566ZM80.4668 163.566C80.4668 164.65 80.5371 165.556 80.6777 166.282C80.8242 167.009 81.0645 167.554 81.3984 167.917C81.7324 168.274 82.1777 168.453 82.7344 168.453C83.291 168.453 83.7363 168.274 84.0703 167.917C84.4043 167.56 84.6445 167.018 84.791 166.291C84.9434 165.564 85.0195 164.656 85.0195 163.566C85.0195 162.488 84.9463 161.586 84.7998 160.859C84.6533 160.133 84.4131 159.588 84.0791 159.225C83.7451 158.855 83.2969 158.671 82.7344 158.671C82.1719 158.671 81.7236 158.855 81.3896 159.225C81.0615 159.588 80.8242 160.133 80.6777 160.859C80.5371 161.586 80.4668 162.488 80.4668 163.566ZM91.4443 156.324V162.934C91.4443 163.232 91.4326 163.561 91.4092 163.918C91.3857 164.27 91.3623 164.601 91.3389 164.911H91.3828C91.5352 164.706 91.7168 164.466 91.9277 164.19C92.1445 163.915 92.3496 163.675 92.543 163.47L95.5137 160.271H97.8867L93.9932 164.454L98.1416 170H95.7158L92.6045 165.729L91.4443 166.722V170H89.3789V156.324H91.4443Z" fill="#5A5A5B"/>
<path fill-rule="evenodd" clip-rule="evenodd" d="M447.123 123C442.084 123 438 127.084 438 132.123V154.93C438 159.968 442.084 164.053 447.123 164.053H464.31L472.21 175L480.111 164.053H497.298C502.337 164.053 506.421 159.968 506.421 154.93V132.123C506.421 127.084 502.337 123 497.298 123H447.123Z" fill="#34ADDC"/>
<path d="M463.703 149H454.721V147.11L457.946 143.85C458.597 143.182 459.118 142.625 459.511 142.18C459.909 141.729 460.196 141.318 460.372 140.949C460.554 140.58 460.645 140.185 460.645 139.763C460.645 139.253 460.501 138.872 460.214 138.62C459.933 138.362 459.555 138.233 459.08 138.233C458.582 138.233 458.099 138.348 457.63 138.576C457.161 138.805 456.672 139.13 456.162 139.552L454.686 137.803C455.055 137.486 455.444 137.188 455.854 136.906C456.271 136.625 456.751 136.399 457.296 136.229C457.847 136.054 458.506 135.966 459.273 135.966C460.117 135.966 460.841 136.118 461.444 136.423C462.054 136.728 462.522 137.144 462.851 137.671C463.179 138.192 463.343 138.784 463.343 139.446C463.343 140.155 463.202 140.803 462.921 141.389C462.64 141.975 462.229 142.555 461.69 143.129C461.157 143.703 460.513 144.339 459.757 145.036L458.104 146.592V146.715H463.703V149ZM466.296 149L471.121 138.436H464.784V136.15H474.004V137.855L469.144 149H466.296ZM479.998 140.791C480.783 140.791 481.48 140.94 482.09 141.239C482.705 141.538 483.188 141.978 483.54 142.558C483.892 143.138 484.067 143.853 484.067 144.702C484.067 145.628 483.874 146.428 483.487 147.102C483.106 147.77 482.535 148.282 481.773 148.64C481.018 148.997 480.074 149.176 478.943 149.176C478.27 149.176 477.634 149.117 477.036 149C476.444 148.889 475.926 148.716 475.48 148.481V146.135C475.926 146.369 476.459 146.568 477.08 146.732C477.707 146.891 478.296 146.97 478.847 146.97C479.386 146.97 479.84 146.899 480.209 146.759C480.578 146.612 480.856 146.39 481.044 146.091C481.237 145.786 481.334 145.399 481.334 144.931C481.334 144.304 481.123 143.823 480.701 143.489C480.279 143.155 479.632 142.988 478.759 142.988C478.425 142.988 478.076 143.021 477.713 143.085C477.355 143.149 477.057 143.214 476.816 143.278L475.735 142.698L476.219 136.15H483.188V138.453H478.601L478.363 140.976C478.562 140.935 478.779 140.894 479.014 140.853C479.248 140.812 479.576 140.791 479.998 140.791ZM488.989 135.324V141.441C488.989 141.811 488.975 142.18 488.945 142.549C488.916 142.918 488.884 143.287 488.849 143.656H488.884C489.065 143.398 489.25 143.144 489.438 142.892C489.631 142.64 489.836 142.396 490.053 142.162L492.804 139.174H495.827L491.925 143.437L496.064 149H492.971L490.141 145.019L488.989 145.941V149H486.309V135.324H488.989Z" fill="white"/>
</g>
</g>
<defs>
<filter id="filter0_i_1_2" x="1" y="2" width="810" height="564.761" filterUnits="userSpaceOnUse" color-interpolation-filters="sRGB">
<feFlood flood-opacity="0" result="BackgroundImageFix"/>
<feBlend mode="normal" in="SourceGraphic" in2="BackgroundImageFix" result="shape"/>
<feColorMatrix in="SourceAlpha" type="matrix" values="0 0 0 0 0 0 0 0 0 0 0 0 0 0 0 0 0 0 127 0" result="hardAlpha"/>
<feOffset dy="1.76053"/>
<feGaussianBlur stdDeviation="1.76053"/>
<feComposite in2="hardAlpha" operator="arithmetic" k2="-1" k3="1"/>
<feColorMatrix type="matrix" values="0 0 0 0 0 0 0 0 0 0 0 0 0 0 0 0 0 0 0.1 0"/>
<feBlend mode="normal" in2="shape" result="effect1_innerShadow_1_2"/>
</filter>
<filter id="filter1_i_1_2" x="616" y="22" width="168" height="42" filterUnits="userSpaceOnUse" color-interpolation-filters="sRGB">
<feFlood flood-opacity="0" result="BackgroundImageFix"/>
<feBlend mode="normal" in="SourceGraphic" in2="BackgroundImageFix" result="shape"/>
<feColorMatrix in="SourceAlpha" type="matrix" values="0 0 0 0 0 0 0 0 0 0 0 0 0 0 0 0 0 0 127 0" result="hardAlpha"/>
<feOffset dy="2"/>
<feGaussianBlur stdDeviation="2"/>
<feComposite in2="hardAlpha" operator="arithmetic" k2="-1" k3="1"/>
<feColorMatrix type="matrix" values="0 0 0 0 0 0 0 0 0 0 0 0 0 0 0 0 0 0 0.1 0"/>
<feBlend mode="normal" in2="shape" result="effect1_innerShadow_1_2"/>
</filter>
<linearGradient id="paint0_linear_1_2" x1="434.984" y1="162.508" x2="434.984" y2="502" gradientUnits="userSpaceOnUse">
<stop stop-color="#D3EDF8"/>
<stop offset="0.9999" stop-color="#67C8EE" stop-opacity="0.06"/>
<stop offset="1" stop-color="#66C8EE" stop-opacity="0"/>
</linearGradient>
<clipPath id="clip0_1_2">
<rect width="815" height="555" fill="white"/>
</clipPath>
</defs>
</svg>
